PathFileType	4	(X/Y/Z)	C:/Users/beibeiliu/ov580/test_trc\sequence.23_training_dense_left.trc
DataRate	CameraRate	NumFrames	NumMarkers	Units	OrigDataRate	OrigDataStartFrame	OrigNumFrames
120	120	18	19	mm	120	217	289
Frame#	Time	ThumbCMC			ThumbMCP			ThumbIP			ThumbTip			IndexMCP			IndexPIP			IndexTip			MiddleMCP			MiddlePIP			MiddleTip			RingMCP			RingPIP			RingTip			PinkyMCP			PinkyPIP			PinkyTip			BackHand1			BackHand2			BackHand3	
		X0	Y0	Z0	X1	Y1	Z1	X2	Y2	Z2	X3	Y3	Z3	X4	Y4	Z4	X5	Y5	Z5	X6	Y6	Z6	X7	Y7	Z7	X8	Y8	Z8	X9	Y9	Z9	X10	Y10	Z10	X11	Y11	Z11	X12	Y12	Z12	X13	Y13	Z13	X14	Y14	Z14	X15	Y15	Z15	X16	Y16	Z16	X17	Y17	Z17	X18	Y18	Z18	
216	1.8	-221.01	50.9265	-0.452396	-201.639	46.9539	-23.7538	-187.548	48.6032	-36.9906	-174.275	50.7197	-50.7	-227.047	49.8653	-66.9218	-219.588	20.858	-63.4061	-219.491	23.3242	-35.5828	-241.021	39.8885	-67.6018	-228.763	11.8495	-58.8736	-233.963	24.791	-28.8665	-260.226	34.2496	-65.5688	-246.629	10.1886	-61.9421	-239.41	17.7882	-35.3132	-286.25	40.8357	-54.5729	-292.834	38.0733	-68.3772	-302.513	41.2316	-86.0013	-267.753	59.0961	-22.5278	-270.575	55.4206	3.05773	-246.624	66.6134	-10.4468	
217	1.80833	-213.011	45.528	-3.32257	-197.479	39.2525	-22.2176	-185.148	38.4521	-34.8515	-172.152	39.799	-49.0218	-221.187	46.2348	-66.7527	-219.463	19.9253	-67.3922	-217.078	19.9826	-35.8813	-238.4	35.8458	-69.9535	-230.71	10.6877	-60.8294	-232.126	20.7574	-29.3473	-256.921	34.7579	-68.2103	-249.383	11.2376	-64.2611	-239.734	17.3448	-35.3155	-281.899	45.2385	-52.0235	-292.127	44.8157	-67.4497	-298.864	49.7327	-87.6435	-262.183	60.7305	-21.1393	-264.293	54.7459	5.8544	-240.241	63.7996	-8.49376	
218	1.81667	-211.284	38.3797	-2.33133	-196.057	30.5282	-18.3734	-181.457	31.5753	-35.0078	-166.46	29.5705	-46.8888	-217.971	44.8207	-64.355	-219.338	17.7951	-66.9884	-217.51	16.5553	-35.3352	-237.374	37.1254	-69.1566	-234.804	10.6638	-62.0953	-232.514	20.137	-29.182	-255.544	40.0514	-65.9144	-246.041	13.0648	-64.5373	-242.919	13.7494	-38.8326	-278.892	50.9053	-49.7744	-282.917	55.4744	-70.7732	-291.275	62.4731	-86.8786	-256.648	61.0266	-18.9855	-260.82	56.962	6.00966	-234.565	61.783	-3.81894	
219	1.825	-210.396	31.3755	-0.683274	-193.428	22.0435	-16.6839	-176.888	22.8233	-35.2998	-166.417	17.7067	-43.5922	-212.55	42.2778	-63.0848	-219.651	14.5851	-66.3313	-217.972	16.0678	-32.8341	-232.635	38.5727	-65.9581	-236.729	10.0977	-62.4002	-234.178	17.0761	-29.5397	-250.129	40.1467	-68.9738	-245.108	17.0125	-66.9201	-242.456	14.0807	-36.9718	-268.9	57.4363	-52.2697	-277.598	61.6617	-67.2723	-279.473	69.807	-84.2664	-251.256	60.2745	-19.2816	-252.846	57.5558	7.16562	-228.691	58.0013	-5.72205	
220	1.83333	-207.723	24.3519	1.62284	-193.247	14.541	-15.6851	-176.315	10.5186	-29.1124	-164.136	8.17081	-42.243	-209.405	38.0536	-61.7379	-217.43	10.6443	-63.2142	-217.66	9.6237	-34.4487	-225.375	38.2445	-64.3131	-231.958	8.20463	-61.9931	-229.596	15.5743	-28.4553	-245.198	42.6341	-69.1864	-247.198	17.6211	-66.8094	-242.728	13.7211	-39.8616	-266.068	63.889	-54.2793	-267.924	67.8789	-67.1471	-268.585	77.1046	-86.5472	-247.687	60.9931	-19.7963	-246.808	54.1278	5.54232	-220.953	53.5426	-4.304	
221	1.84167	-205.92	18.0644	3.19828	-191.408	7.47598	-15.974	-174.889	3.40342	-30.7539	-161.813	-2.28895	-39.3661	-205.568	35.7831	-59.7694	-216.195	10.5724	-65.2281	-218.443	8.75217	-33.9907	-220.158	36.614	-65.2658	-233.865	9.08629	-61.5006	-230.314	15.7231	-28.0589	-236.564	44.5995	-66.4903	-243.08	18.7821	-66.6577	-242.755	15.1858	-37.5358	-254.159	65.8443	-53.6202	-259.137	71.4096	-67.7757	-261.671	81.4943	-84.9757	-238.637	59.5068	-18.5103	-246.942	54.3458	11.6852	-214.821	49.2888	-2.56114	
222	1.85	-206.943	14.7906	2.35459	-191.725	2.96808	-16.8815	-174.367	-1.89109	-30.1313	-160.211	-9.02619	-39.7171	-198.098	33.0723	-57.7731	-211.548	8.86196	-65.8551	-217.413	4.56065	-35.8699	-215.565	37.6335	-62.5723	-229.989	8.91498	-61.0459	-228.944	16.2298	-28.5598	-230.004	45.2504	-67.067	-239.66	21.0912	-68.3729	-242.293	15.8104	-40.2539	-247.853	65.3138	-48.954	-250.837	75.5014	-69.9954	-251.012	85.4632	-86.271	-234.676	60.7208	-17.1864	-240.425	51.922	9.71309	-216.223	45.9712	1.00361	
223	1.85833	-205.251	11.3968	3.84227	-196.015	-1.05339	-12.8794	-179.78	-3.94827	-28.2882	-162.75	-14.3616	-35.4341	-194.174	30.2777	-57.1192	-211.426	9.92571	-65.4913	-218.572	6.98581	-34.8199	-214.296	36.6793	-62.9677	-226.222	10.1148	-63.1681	-224.976	14.1307	-28.1314	-223.367	46.7715	-64.4173	-234.937	21.3672	-66.4622	-236.561	16.6358	-41.9518	-238.124	69.5343	-52.6638	-237.711	75.4482	-69.2794	-238.78	86.4828	-85.6517	-225.871	59.7606	-14.1816	-238.351	56.4776	8.65304	-213.196	43.7148	0.894333	
224	1.86667	-206.198	11.1308	3.56467	-193.309	0.876461	-15.8599	-176.769	-10.6181	-24.7815	-163.057	-17.7061	-33.8569	-189.639	28.3771	-55.8503	-208.841	8.33112	-62.779	-214.008	6.6557	-32.8538	-209.136	35.2971	-63.1302	-226.529	11.618	-60.4919	-221.888	14.2016	-28.0662	-220.055	49.1115	-60.9791	-232.627	23.0702	-67.1892	-233.041	18.1201	-40.7384	-234.448	72.1861	-50.8411	-233.248	78.3536	-66.8576	-227.565	88.3526	-84.7343	-225.819	60.8936	-12.5687	-235.098	55.2768	12.1012	-206.648	42.307	2.52485	
225	1.875	-203.828	10.3562	5.5376	-190.985	-2.70201	-10.1164	-179.641	-6.86879	-23.5408	-159.519	-17.2734	-33.905	-187.053	28.8961	-56.6833	-203.482	7.48507	-60.8653	-215.287	9.66041	-35.9509	-200.849	37.9677	-58.5497	-222.239	15.8017	-62.2992	-221.381	16.5782	-30.2865	-215.472	50.135	-65.4044	-223.42	24.5926	-66.528	-230.657	21.6034	-41.0712	-225.196	72.5767	-51.2508	-224.227	80.1079	-67.3095	-219.885	92.3115	-83.1578	-220.5	62.5914	-11.1909	-233.867	54.0827	12.1356	-205.59	42.2919	3.77395	
226	1.88333	-201.74	11.7657	5.25727	-191.483	1.02782	-12.8273	-172.093	-10.1999	-22.9117	-157.666	-17.5646	-32.2265	-182.464	29.5907	-52.4714	-201.166	10.2074	-61.4962	-211.85	9.27926	-34.6762	-197.304	37.8339	-59.7308	-218.179	15.5731	-60.0435	-217.109	19.3553	-28.8664	-207.475	49.6463	-63.6726	-222.284	29.0029	-66.7374	-225.059	25.2552	-37.8547	-221.846	77.4997	-51.7905	-219.781	84.1136	-67.6423	-210.91	91.5976	-80.1244	-216.97	66.381	-14.9118	-226.98	57.0014	10.4055	-204.847	45.1281	5.27585	
227	1.89167	-204.651	14.975	5.27861	-191.067	2.64546	-11.572	-175.055	-6.90363	-23.5794	-159.292	-16.8769	-31.5685	-179.57	30.6405	-51.3846	-196.457	11.0661	-63.4033	-208.415	11.332	-33.2411	-193.164	37.893	-59.6893	-214.551	15.7543	-60.7363	-215.602	20.5205	-28.9087	-206.228	53.5131	-66.3957	-218.293	28.9098	-66.9359	-224.257	28.5152	-38.0215	-216.802	76.2511	-49.1463	-214.848	84.5803	-64.3957	-209.216	96.5123	-78.4805	-208.607	66.268	-13.4938	-226.214	60.1822	8.6841	-197.273	45.3159	4.76575	
228	1.9	-202.668	16.3856	5.71784	-192.532	3.51908	-10.7369	-176.21	-6.17044	-23.3948	-159.748	-19.7159	-27.6219	-179.646	31.5479	-55.2325	-196.528	14.0493	-63.9356	-206.884	11.7572	-32.7442	-192.111	40.0986	-61.4563	-213.382	20.3494	-62.5803	-216.079	24.2132	-32.65	-204.977	58.2734	-62.6675	-215.106	31.9648	-68.3094	-221.85	27.8813	-43.9906	-215.859	79.8283	-50.1038	-209.058	89.42	-69.2739	-200.049	94.576	-83.5688	-209.712	69.3184	-14.1895	-222.099	62.778	9.30069	-198.047	46.2997	5.42499	
229	1.90833	-201.754	19.4389	3.70213	-191.315	4.20101	-11.2988	-174.981	-4.70674	-24.0131	-156.484	-17.2934	-30.914	-174.504	31.0093	-53.0907	-194.125	13.9578	-64.3592	-206.381	13.0412	-37.5955	-188.962	42.5764	-59.1259	-211.487	19.318	-62.7104	-216.002	25.8124	-33.8371	-201.86	58.3469	-66.1367	-216.77	35.7183	-69.9183	-222.343	33.1068	-40.9819	-211.686	82.5754	-54.3851	-208.392	87.0639	-66.0158	-200.853	98.0385	-83.5477	-208.275	68.2193	-14.5712	-223.138	66.4643	8.11584	-196.83	51.8031	0.661076	
230	1.91667	-199.522	19.4776	4.04309	-185.796	7.15508	-15.2796	-171.205	-3.30373	-25.4512	-155.13	-14.3471	-32.3936	-173.755	34.2473	-53.0917	-194.782	15.8573	-64.1777	-206.5	16.5502	-36.0805	-191.303	47.0464	-62.1358	-209.456	21.2952	-64.8977	-210.997	25.7669	-30.9383	-198.57	56.316	-64.7965	-215.395	37.9795	-72.3891	-218.334	30.0779	-44.4604	-213.21	82.8676	-52.6773	-205.613	89.1328	-71.3501	-199.958	97.7978	-86.9985	-205.295	71.8512	-16.5137	-217.36	63.8407	5.94431	-195.455	52.6448	1.90695	
231	1.925	-196.487	21.4626	1.50054	-181.321	4.47963	-12.8398	-167.313	-2.69546	-25.4966	-154.523	-14.9643	-29.7113	-172.697	32.1998	-55.1149	-191.39	15.2992	-64.4943	-205.953	19.3746	-34.2312	-187.502	41.3755	-62.5804	-208.555	20.4037	-61.7796	-210.546	25.983	-30.1446	-199.121	56.7547	-66.5929	-215.37	37.2896	-70.8747	-218.011	32.1538	-43.1058	-211.237	79.4394	-51.7482	-207.015	86.8899	-70.0018	-202.438	96.77	-82.7324	-204.21	71.0339	-15.5074	-217.615	65.8031	6.59273	-194.073	52.124	1.40468	
232	1.93333	-194.321	20.5069	2.24908	-182.177	8.47512	-15.6373	-165.842	-2.59047	-24.1778	-154.245	-12.7612	-29.7554	-172.427	32.9715	-56.5878	-189.495	13.7033	-63.9517	-201.999	14.0492	-37.0597	-189.452	42.9389	-64.2772	-207.199	19.2552	-62.4609	-212.053	23.8249	-33.2548	-201.358	57.1214	-68.7923	-210.982	33.99	-69.4226	-216.744	31.6712	-41.1926	-209.141	80.7286	-55.3955	-208.807	87.4949	-72.0455	-201.287	96.9947	-87.9773	-205.536	68.4716	-13.7667	-218.552	64.9994	6.34677	-194.388	51.1189	4.24138	
233	1.94167	-195.777	20.1	5.27075	-181.725	8.27143	-13.0458	-164.713	-2.9127	-22.189	-145.476	-11.2416	-31.3438	-171.118	33.5417	-53.8818	-190.001	13.6856	-64.101	-202.164	16.1765	-36.1909	-187.639	42.9185	-60.5975	-205.701	20.7406	-65.0002	-209.075	26.1102	-30.0096	-197.97	56.1411	-62.913	-213.385	34.1189	-70.3258	-214.496	29.8435	-38.8167	-211.078	78.403	-53.9944	-206.881	84.8398	-73.6246	-205.139	92.6951	-86.4947	-207.517	72.0983	-16.2106	-218.433	65.0483	6.97566	-191.318	53.1104	-0.0927526	
